<?xml version="1.0"?>
<svg xmlns="http://www.w3.org/2000/svg" viewBox="0 0 50 50" enable-background="new 0 0 50 50">
    <path style="text-indent:0;text-align:start;line-height:normal;text-transform:none;block-progression:tb;-inkscape-font-specification:Bitstream Vera Sans" d="M 11 14 C 4.9367123 14 0 18.936713 0 25 C 0 31.063287 4.9367123 36 11 36 L 39 36 C 45.063287 36 50 31.063287 50 25 C 50 18.936713 45.063287 14 39 14 C 32.936713 14 28 18.936713 28 25 C 28 28.718622 29.852671 32.00782 32.6875 34 L 17.3125 34 C 20.147329 32.00782 22 28.718622 22 25 C 22 18.936713 17.063287 14 11 14 z M 11 16 C 15.982407 16 20 20.017593 20 25 C 20 29.982407 15.982407 34 11 34 C 6.0175927 34 2 29.982407 2 25 C 2 20.017593 6.0175927 16 11 16 z M 39 16 C 43.982407 16 48 20.017593 48 25 C 48 29.982407 43.982407 34 39 34 C 34.017593 34 30 29.982407 30 25 C 30 20.017593 34.017593 16 39 16 z" overflow="visible" enable-background="accumulate" font-family="Bitstream Vera Sans"/>
</svg>
